<svg width="15" height="14" viewBox="0 0 15 14" fill="none" xmlns="http://www.w3.org/2000/svg">
<path d="M3.31556 6.05889C4.43556 8.26 6.24 10.0644 8.44111 11.1844L10.1522 9.47333C10.37 9.25556 10.6733 9.19333 10.9456 9.27889C11.8167 9.56667 12.75 9.72222 13.7222 9.72222C13.9285 9.72222 14.1263 9.80417 14.2722 9.95003C14.4181 10.0959 14.5 10.2937 14.5 10.5V13.2222C14.5 13.4285 14.4181 13.6263 14.2722 13.7722C14.1263 13.9181 13.9285 14 13.7222 14C10.2155 14 6.85235 12.6069 4.3727 10.1273C1.89305 7.64765 0.5 4.28453 0.5 0.777778C0.5 0.571498 0.581944 0.373667 0.727806 0.227806C0.873667 0.0819442 1.0715 0 1.27778 0H4C4.20628 0 4.40411 0.0819442 4.54997 0.227806C4.69583 0.373667 4.77778 0.571498 4.77778 0.777778C4.77778 1.75 4.93333 2.68333 5.22111 3.55444C5.30667 3.82667 5.24444 4.13 5.02667 4.34778L3.31556 6.05889Z" fill="white"/>
</svg>
